# xmcd CD database file
#
# Track frame offsets:
#	150
#	40148
#	91608
#	138730
#	197335
#	242425
#	280621
#
# Disc length: 4186 seconds
#
# Revision: 1
# Processed by: cddbd v1.5.1PL0 Copyright (c) Steve Scherf et al.
# Submitted via: CDex 1.51
#
DISCID=50105807
DTITLE=Alick Macheso - Vapupuri Pupurai
DYEAR=2005
DGENRE=Sungura
TTITLE0=Makandidana
TTITLE1=Upenyu Hwemunhu
TTITLE2=1940
TTITLE3=Teererai
TTITLE4=Baba VaSandy
TTITLE5=Amakebhoyi
TTITLE6=Murondatsimba
EXTD=YEAR: 2005
EXTT0=
EXTT1=
EXTT2=
EXTT3=
EXTT4=
EXTT5=
EXTT6=
PLAYORDER=
